<?xml version="1.0" encoding="UTF-8" standalone="no"?>
<svg
   data-name="Layer 1"
   viewBox="0 0 501.99999 311.64549"
   x="0px"
   y="0px"
   id="svg3207"
   version="1.1"
   inkscape:version="1.3.2 (091e20e, 2023-11-25, custom)"
   width="100%"
   height="100%"
   sodipodi:docname="icon.svg"
   xmlns:inkscape="http://www.inkscape.org/namespaces/inkscape"
   xmlns:sodipodi="http://sodipodi.sourceforge.net/DTD/sodipodi-0.dtd"
   xmlns="http://www.w3.org/2000/svg"
   xmlns:svg="http://www.w3.org/2000/svg"
   xmlns:rdf="http://www.w3.org/1999/02/22-rdf-syntax-ns#"
   xmlns:cc="http://creativecommons.org/ns#"
   xmlns:dc="http://purl.org/dc/elements/1.1/">
  <metadata
     id="metadata3219">
    <rdf:RDF>
      <cc:Work
         rdf:about="">
        <dc:format>image/svg+xml</dc:format>
        <dc:type
           rdf:resource="http://purl.org/dc/dcmitype/StillImage" />
      </cc:Work>
    </rdf:RDF>
  </metadata>
  <defs
     id="defs3217" />
  <sodipodi:namedview
     pagecolor="#ffffff"
     bordercolor="#666666"
     borderopacity="1"
     objecttolerance="10"
     gridtolerance="10"
     guidetolerance="10"
     inkscape:pageopacity="0"
     inkscape:pageshadow="2"
     inkscape:window-width="2560"
     inkscape:window-height="1377"
     id="namedview3215"
     showgrid="false"
     inkscape:zoom="1.888"
     inkscape:cx="315.67797"
     inkscape:cy="163.93008"
     inkscape:window-x="-8"
     inkscape:window-y="-8"
     inkscape:window-maximized="1"
     inkscape:current-layer="svg3207"
     fit-margin-top="1"
     fit-margin-left="1"
     fit-margin-right="1"
     fit-margin-bottom="1"
     inkscape:showpageshadow="2"
     inkscape:pagecheckerboard="0"
     inkscape:deskcolor="#d1d1d1" />
  <title
     id="title3209">09</title>
  <path
     style="color:#000000;fill:#000000;stroke-linecap:round;stroke-linejoin:round;-inkscape-stroke:none"
     d="M 92.305819,19.348727 C 90.336955,19.632738 80.883769,20.593658 79.69247,22.186736 43.577138,70.475225 19.081139,125.5568 0.77952861,205.40702 c -0.9255952,4.03752 -1.58075412,15.47614 2.45679949,16.40157 4.0375172,0.9256 8.0608929,-1.5972 8.9863279,-5.63476 C 30.176833,137.83947 58.2041,71.846201 92.546875,25.927734 c 2.48097,-3.316943 4.424964,-4.739971 1.108016,-7.220936 -1.592761,-1.191606 0.619768,0.358231 -1.349072,0.641929 z"
     id="path3066"
     sodipodi:nodetypes="cccccccc" />
  <path
     sodipodi:type="arc"
     style="fill:none;stroke:#000000;stroke-width:15;stroke-linecap:round;stroke-linejoin:round;stroke-miterlimit:4;stroke-dasharray:none;stroke-opacity:1"
     id="path3095"
     sodipodi:cx="252.23148"
     sodipodi:cy="158.32732"
     sodipodi:rx="344.06003"
     sodipodi:ry="150.21111"
     d="M 85.53073,26.92484 A 344.06003,150.21111 0 0 1 416.6676,26.382077"
     sodipodi:start="4.2065853"
     sodipodi:end="5.210684"
     sodipodi:open="true"
     sodipodi:arc-type="arc" />
  <path
     style="color:#000000;fill:#000000;stroke-linecap:round;stroke-linejoin:round;-inkscape-stroke:none"
     d="m 23.789062,693.67969 c -7.524893,-1.52964 -7.152573,-0.66964 -8.682085,6.85528 -5.2172253,25.66567 -1.605833,54.77766 18.76607,73.258 20.371903,18.48034 49.814122,31.81823 85.093753,38.32422 7.55063,1.39195 14.80025,-3.59997 16.19336,-11.15039 1.39316,-7.55132 -3.59906,-14.80224 -11.15039,-16.19532 C 92.772503,779.01096 67.852598,767.07297 52.556641,753.19727 37.260684,739.32156 31.608934,724.99796 34.642578,710.07422 c 1.529729,-7.52427 -3.329392,-14.8641 -10.853516,-16.39453 z"
     id="path3097"
     transform="matrix(0.54940915,0,0,0.52963595,-8.3728754,-161.88655)"
     sodipodi:nodetypes="ccscccscc" />
  <path
     style="color:#000000;fill:#000000;stroke-linecap:round;stroke-linejoin:round;-inkscape-stroke:none"
     d="m -497.375,205.97266 c -4.05322,-0.85636 -4.32547,-5.67958 -5.18104,-1.62619 -2.91732,13.81218 -0.25676,34.72456 11.01698,44.54415 11.27374,9.8196 27.51874,16.87591 46.99414,20.30665 4.07894,0.71742 7.96731,-2.00715 8.68555,-6.08594 0.7187,-4.07898 -2.00509,-7.96835 -6.08399,-8.6875 -17.36713,-3.05935 -31.24626,-9.44197 -39.74414,-16.84375 -8.49788,-7.40179 -11.55002,-14.9085 -9.90039,-22.71875 0.85645,-4.0526 -1.73452,-8.03218 -5.78711,-8.88867 z"
     id="path3097-5-3"
     transform="scale(-1,1)"
     sodipodi:nodetypes="ccscccscc" />
  <path
     sodipodi:type="arc"
     style="fill:none;stroke:#000000;stroke-width:15;stroke-linecap:round;stroke-linejoin:round;stroke-miterlimit:4;stroke-dasharray:none;stroke-opacity:1"
     id="path3983"
     sodipodi:cx="249.01154"
     sodipodi:cy="-593.75653"
     sodipodi:rx="532.41913"
     sodipodi:ry="356.44885"
     d="m 443.25268,-261.87587 a 532.41913,356.44885 0 0 1 -384.775866,0.96163"
     sodipodi:start="1.1973488"
     sodipodi:end="1.9367779"
     sodipodi:open="true"
     transform="scale(1,-1)"
     sodipodi:arc-type="arc" />
  <path
     style="color:#000000;fill:#000000;stroke-linecap:round;stroke-linejoin:round;-inkscape-stroke:none"
     d="m -414.70318,20.024924 c -1.96936,0.281566 -6.64875,0.584967 -7.84203,2.176727 -36.21394,48.290022 -61.90826,102.550429 -80.26034,182.405379 -0.92715,4.03634 0.004,15.74027 4.03993,16.66836 4.03634,0.92715 8.06019,-1.59279 8.98828,-5.62891 18.00291,-78.33561 46.10795,-144.331452 80.54492,-190.251949 2.48353,-3.313881 2.27931,-5.298166 -1.03379,-7.782727 -1.5911,-1.193855 -2.46772,2.132175 -4.43697,2.41312 z"
     id="path3066-9"
     transform="scale(-1,1)"
     sodipodi:nodetypes="cccccccc" />
  <rect
     style="fill:none;stroke:#000000;stroke-width:3;stroke-linecap:butt;stroke-linejoin:miter;stroke-miterlimit:4;stroke-dasharray:none;stroke-opacity:1"
     id="rect4030-1"
     width="21.894419"
     height="4.6115856"
     x="236.57666"
     y="283.93573"
     ry="2.3057928"
     rx="5.2304025" />
  <path
     sodipodi:type="arc"
     style="fill:none;stroke:#000000;stroke-width:15;stroke-linecap:round;stroke-linejoin:round;stroke-miterlimit:4;stroke-dasharray:none;stroke-opacity:1"
     id="path4050"
     sodipodi:cx="252.40407"
     sodipodi:cy="254.41208"
     sodipodi:rx="271.50696"
     sodipodi:ry="49.695953"
     d="M 452.75847,287.95049 A 271.50696,49.695953 0 0 1 250.51637,304.10683 271.50696,49.695953 0 0 1 49.521186,287.43732"
     sodipodi:start="0.74079143"
     sodipodi:end="2.4147067"
     sodipodi:open="true"
     sodipodi:arc-type="arc" />
  <path
     style="color:#000000;fill:#000000;stroke-linecap:round;stroke-linejoin:round;-inkscape-stroke:none"
     d="m 6.0800781,252.65039 c -1.9352626,-0.46028 -2.6499579,-5.4295 -4.3438162,-4.38645 -3.5272223,2.17143 -0.3890959,18.97326 1.78221,22.50056 9.0173451,14.64602 21.6043191,17.99479 44.4893401,23.7648 4.015861,1.01241 8.092203,-1.42186 9.105469,-5.4375 1.013533,-4.01711 -1.42205,-8.09507 -5.439453,-9.10743 C 31.19602,274.8213 16.456036,265.31512 10.730469,256.01562 9.6879325,254.32158 8.0151352,253.11107 6.0800781,252.65039 Z"
     id="path4072"
     sodipodi:nodetypes="cccccccc" />
  <path
     style="color:#000000;fill:#000000;stroke-linecap:round;stroke-linejoin:round;-inkscape-stroke:none"
     d="m 4.703125,214.2793 c -4.14231154,0.0578 -5.59937914,2.13902 -5.54071774,6.28132 0.2728455,19.33542 1.39556132,35.99261 2.23669234,45.24566 0.3746034,4.12472 1.6382353,7.69465 5.7630098,7.32067 4.1255506,-0.37458 7.1661366,-4.02293 6.7910156,-8.14843 -0.755657,-8.31277 -0.579993,-35.29054 -0.850039,-54.42757 -0.05784,-4.14231 -4.2576619,3.66969 -8.399961,3.72835 z"
     id="path4072-79"
     sodipodi:nodetypes="ccccccc" />
  <path
     style="color:#000000;fill:#000000;stroke-linecap:round;stroke-linejoin:round;-inkscape-stroke:none"
     d="m -496.93359,217.33203 c -4.14152,0.0547 -7.45468,3.45614 -7.40039,7.59766 0.26678,20.46138 0.84634,37.25852 1.66406,46.99414 0.34682,4.12756 3.97399,7.19247 8.10156,6.8457 4.12756,-0.34682 7.19247,-3.97399 6.8457,-8.10156 -0.74461,-8.86526 -1.34889,-41.0157 -1.61328,-61.29377 -0.0536,-4.14228 -3.45538,7.90355 -7.59765,7.95783 z"
     id="path4072-79-1"
     transform="scale(-1,1)"
     sodipodi:nodetypes="cccsccc" />
  <path
     style="color:#000000;fill:#000000;stroke-linecap:round;stroke-linejoin:round;-inkscape-stroke:none"
     d="m -496.01953,258.27734 c -1.96925,-0.28095 -3.96945,0.23193 -5.56055,1.42578 -3.31307,2.48588 -0.27612,14.0724 2.20959,17.38559 13.31229,9.79657 23.38356,13.527 45.91151,18.18668 4.05639,0.83871 8.02464,-1.76977 8.86328,-5.82617 0.83881,-4.05576 -1.76861,-8.02373 -5.82422,-8.86328 -20.4938,-4.23894 -35.37306,-12.34193 -40.66016,-19.38672 -1.194,-1.59029 -2.97071,-2.64129 -4.93945,-2.92188 z"
     id="path4072-7"
     transform="scale(-1,1)"
     sodipodi:nodetypes="cscccccc" />
  <ellipse
     style="fill:none;fill-rule:evenodd;stroke:#000000;stroke-width:8;stroke-dasharray:none;stroke-opacity:1"
     id="path1"
     cx="254.49654"
     cy="63.926605"
     rx="86.14119"
     ry="29.2131" />
</svg>
